<svg width="17" height="17" viewBox="0 0 17 17" fill="none" xmlns="http://www.w3.org/2000/svg">
<path d="M15.9645 14.5855L12.2891 10.9102C13.1739 9.73217 13.6516 8.29831 13.65 6.825C13.65 3.06172 10.5883 0 6.825 0C3.06172 0 0 3.06172 0 6.825C0 10.5883 3.06172 13.65 6.825 13.65C8.29831 13.6516 9.73217 13.1739 10.9102 12.2891L14.5855 15.9645C14.7716 16.1308 15.0143 16.2195 15.2637 16.2126C15.5131 16.2056 15.7505 16.1034 15.9269 15.9269C16.1034 15.7505 16.2056 15.5131 16.2126 15.2637C16.2195 15.0143 16.1308 14.7716 15.9645 14.5855ZM1.95 6.825C1.95 5.86082 2.23591 4.91828 2.77159 4.1166C3.30726 3.31491 4.06863 2.69006 4.95942 2.32109C5.85021 1.95211 6.83041 1.85557 7.77607 2.04367C8.72172 2.23177 9.59036 2.69607 10.2721 3.37785C10.9539 4.05964 11.4182 4.92828 11.6063 5.87393C11.7944 6.81959 11.6979 7.79979 11.3289 8.69058C10.9599 9.58137 10.3351 10.3427 9.53341 10.8784C8.73172 11.4141 7.78918 11.7 6.825 11.7C5.53255 11.6984 4.29347 11.1843 3.37957 10.2704C2.46566 9.35653 1.95155 8.11745 1.95 6.825Z" fill="#00197E"/>
</svg>
